<?xml version="1.0" encoding="UTF-8" standalone="no"?>
<!DOCTYPE svg PUBLIC "-//W3C//DTD SVG 1.1//EN" "http://www.w3.org/Graphics/SVG/1.1/DTD/svg11.dtd">
<svg width="600" height="500" xmlns="http://www.w3.org/2000/svg" xmlns:xlink="http://www.w3.org/1999/xlink"><g class="venn-area venn-circle" data-venn-sets="A"><path d="
M 416.9855962198984 252.78408337167275 
m -168.01440378010162 0 
a 168.01440378010162 168.01440378010162 0 1 0 336.02880756020323 0 
a 168.01440378010162 168.01440378010162 0 1 0 -336.02880756020323 0" style="fill-opacity: 0; fill: rgb(31, 119, 180); stroke-width: 10; stroke-opacity: 0.5; stroke: black;"></path><text font-family="-apple-system, BlinkMacSystemFont, avenir next, avenir, segoe ui, helvetica neue, helvetica, Cantarell, Ubuntu, roboto, noto, arial, sans-serif" class="label" text-anchor="middle" dy=".35em" x="523" y="252" style="fill: black; font-size: 32px"><tspan x="480" y="252" dy="0.35em">Open Library</tspan></text></g><g class="venn-area venn-circle" data-venn-sets="B"><path d="
M 238.90410426307162 252.78408337167275 
m -223.90410426307162 0 
a 223.90410426307162 223.90410426307162 0 1 0 447.80820852614323 0 
a 223.90410426307162 223.90410426307162 0 1 0 -447.80820852614323 0" style="fill-opacity: 0; fill: rgb(255, 127, 14); stroke-width: 10; stroke-opacity: 0.5; stroke: red;"></path><text font-family="-apple-system, BlinkMacSystemFont, avenir next, avenir, segoe ui, helvetica neue, helvetica, Cantarell, Ubuntu, roboto, noto, arial, sans-serif" class="label" text-anchor="middle" dy=".35em" x="131" y="252" style="fill: red; font-size: 32px"><tspan x="90" y="252" dy="0.35em">ISBNdb</tspan></text></g><g class="venn-area venn-circle" data-venn-sets="C"><path d="
M 370.42758237794334 99.59745153081322 
m -76.28563916555758 0 
a 76.28563916555758 76.28563916555758 0 1 0 152.57127833111517 0 
a 76.28563916555758 76.28563916555758 0 1 0 -152.57127833111517 0" style="fill-opacity: 0; fill: rgb(44, 160, 44); stroke-width: 10; stroke-opacity: 0.8; stroke: #0095ff;"></path><text font-family="-apple-system, BlinkMacSystemFont, avenir next, avenir, segoe ui, helvetica neue, helvetica, Cantarell, Ubuntu, roboto, noto, arial, sans-serif" class="label" text-anchor="middle" dy=".35em" x="397" y="58" style="fill: #0095ff; font-size: 32px"><tspan x="510" y="40" dy="0.35em">Z-Library</tspan></text></g><g class="venn-area venn-intersection" data-venn-sets="A_B"><path d="
M 389.4453683120989 418.525978269642 
A 168.01440378010162 168.01440378010162 0 0 1 389.4453683120989 87.0421884737035 
A 223.90410426307162 223.90410426307162 0 0 1 389.4453683120989 418.525978269642" style="fill-opacity: 0;"></path><text font-family="-apple-system, BlinkMacSystemFont, avenir next, avenir, segoe ui, helvetica neue, helvetica, Cantarell, Ubuntu, roboto, noto, arial, sans-serif" class="label" text-anchor="middle" dy=".35em" x="357" y="278" style="fill: rgb(68, 68, 68);"><tspan x="357" y="278" dy="0.35em"></tspan></text></g><g class="venn-area venn-intersection" data-venn-sets="A_C"><path d="
M 301.0055421492332 131.22147836771362 
A 168.01440378010162 168.01440378010162 0 0 1 445.706113199494 87.24263302763418 
A 76.28563916555758 76.28563916555758 0 0 1 301.0055421492332 131.22147836771362" style="fill-opacity: 0;"></path><text font-family="-apple-system, BlinkMacSystemFont, avenir next, avenir, segoe ui, helvetica neue, helvetica, Cantarell, Ubuntu, roboto, noto, arial, sans-serif" class="label" text-anchor="middle" dy=".35em" x="428" y="103" style="fill: rgb(68, 68, 68);"><tspan x="428" y="103" dy="0.35em"></tspan></text></g><g class="venn-area venn-intersection" data-venn-sets="B_C"><path d="
M 318.65907131944897 43.56603172295719 
A 223.90410426307162 223.90410426307162 0 0 1 433.64657995006786 142.29238201293674 
A 76.28563916555758 76.28563916555758 0 1 1 318.65907131944897 43.56603172295719" style="fill-opacity: 0;"></path><text font-family="-apple-system, BlinkMacSystemFont, avenir next, avenir, segoe ui, helvetica neue, helvetica, Cantarell, Ubuntu, roboto, noto, arial, sans-serif" class="label" text-anchor="middle" dy=".35em" x="327" y="78" style="fill: rgb(68, 68, 68);"><tspan x="327" y="78" dy="0.35em"></tspan></text></g><g class="venn-area venn-intersection" data-venn-sets="A_B_C"><path d="
M 301.0055421492332 131.22147836771362 
A 168.01440378010162 168.01440378010162 0 0 1 389.4453683120989 87.0421884737035 
A 223.90410426307162 223.90410426307162 0 0 1 433.64657995006786 142.29238201293674 
A 76.28563916555758 76.28563916555758 0 0 1 301.0055421492332 131.22147836771362" style="fill-opacity: 0;"></path><text font-family="-apple-system, BlinkMacSystemFont, avenir next, avenir, segoe ui, helvetica neue, helvetica, Cantarell, Ubuntu, roboto, noto, arial, sans-serif" class="label" text-anchor="middle" dy=".35em" x="376" y="133" style="fill: rgb(68, 68, 68);"><tspan x="376" y="133" dy="0.35em"></tspan></text></g></svg>